<?xml version="1.0" encoding="UTF-8"?>
<svg width="497px" height="84px" viewBox="0 0 497 84" version="1.1" xmlns="http://www.w3.org/2000/svg" xmlns:xlink="http://www.w3.org/1999/xlink">
    <!-- Generator: sketchtool 52.6 (67491) - http://www.bohemiancoding.com/sketch -->
    <title>0656A113-3FC3-4453-B24A-BDF3D9CC7370</title>
    <desc>Created with sketchtool.</desc>
    <g id="Pulse" stroke="none" stroke-width="1" fill="none" fill-rule="evenodd">
        <g id="1.2-Pulse/All-Posts-States" transform="translate(-380.000000, -518.000000)">
            <g id="Activities/Audio" transform="translate(146.000000, 388.000000)">
                <g id="Center" transform="translate(0.000000, 80.000000)">
                    <g id="Art" transform="translate(234.000000, 50.000000)">
                        <g id="Wave-group" fill="#333333">
                            <rect id="Rectangle-2" x="0" y="36.1704664" width="2" height="10.5733307"></rect>
                            <rect id="Rectangle-2" x="6" y="36.1704664" width="2" height="10.5733307"></rect>
                            <rect id="Rectangle-2" x="9" y="32.9984672" width="2" height="16.9173292"></rect>
                            <rect id="Rectangle-2" x="12" y="30.883801" width="2" height="21.1466615"></rect>
                            <rect id="Rectangle-2" x="15" y="25.5971356" width="2" height="32.7773253"></rect>
                            <rect id="Rectangle-2" x="18" y="15.4394349" width="2" height="53.0927267"></rect>
                            <rect id="Rectangle-2" x="57" y="6.34600958" width="2" height="69.7973918"></rect>
                            <rect id="Rectangle-2" x="282" y="0.426863643" width="2" height="80.1515918"></rect>
                            <rect id="Rectangle-2" x="354" y="8.46067573" width="2" height="69.7973918"></rect>
                            <rect id="Rectangle-2" x="165" y="6.34600958" width="2" height="69.7973918"></rect>
                            <rect id="Rectangle-2" x="426" y="6.34600958" width="2" height="69.7973918"></rect>
                            <rect id="Rectangle-2" x="222" y="6.34600958" width="2" height="69.7973918"></rect>
                            <rect id="Rectangle-2" x="171" y="0.111576514" width="2" height="82.266258"></rect>
                            <rect id="Rectangle-2" x="432" y="0.111576514" width="2" height="82.266258"></rect>
                            <rect id="Rectangle-2" x="228" y="0.111576514" width="2" height="82.266258"></rect>
                            <rect id="Rectangle-2" x="135" y="7.40334265" width="2" height="69.7973918"></rect>
                            <rect id="Rectangle-2" x="396" y="7.40334265" width="2" height="69.7973918"></rect>
                            <rect id="Rectangle-2" x="192" y="19.2531372" width="2" height="47.5799883"></rect>
                            <rect id="Rectangle-2" x="249" y="19.2531372" width="2" height="47.5799883"></rect>
                            <rect id="Rectangle-2" x="444" y="19.2531372" width="2" height="47.5799883"></rect>
                            <rect id="Rectangle-2" x="96" y="6.34600958" width="2" height="69.7973918"></rect>
                            <rect id="Rectangle-2" x="321" y="6.34600958" width="2" height="69.7973918"></rect>
                            <rect id="Rectangle-2" x="45" y="6.34600958" width="2" height="69.7973918"></rect>
                            <rect id="Rectangle-2" x="270" y="6.34600958" width="2" height="69.7973918"></rect>
                            <rect id="Rectangle-2" x="123" y="7.40334265" width="2" height="69.7973918"></rect>
                            <rect id="Rectangle-2" x="384" y="7.40334265" width="2" height="69.7973918"></rect>
                            <rect id="Rectangle-2" x="180" y="7.40334265" width="2" height="69.7973918"></rect>
                            <rect id="Rectangle-2" x="84" y="1.16890959" width="2" height="80.1515918"></rect>
                            <rect id="Rectangle-2" x="309" y="1.16890959" width="2" height="80.1515918"></rect>
                            <rect id="Rectangle-2" x="162" y="2.22624266" width="2" height="80.1515918"></rect>
                            <rect id="Rectangle-2" x="423" y="2.22624266" width="2" height="80.1515918"></rect>
                            <rect id="Rectangle-2" x="219" y="2.22624266" width="2" height="80.1515918"></rect>
                            <rect id="Rectangle-2" x="33" y="10.31331" width="2" height="63.3449765"></rect>
                            <rect id="Rectangle-2" x="258" y="10.31331" width="2" height="63.3449765"></rect>
                            <rect id="Rectangle-2" x="453" y="21.31331" width="2" height="52.3449765"></rect>
                            <rect id="Rectangle-2" x="72" y="10.31331" width="2" height="63.3449765"></rect>
                            <rect id="Rectangle-2" x="297" y="8.43922518" width="2" height="67.0931462"></rect>
                            <rect id="Rectangle-2" x="369" y="12.4279762" width="2" height="63.3449765"></rect>
                            <rect id="Rectangle-2" x="150" y="11.3706431" width="2" height="63.3449765"></rect>
                            <rect id="Rectangle-2" x="411" y="11.3706431" width="2" height="63.3449765"></rect>
                            <rect id="Rectangle-2" x="207" y="11.3706431" width="2" height="63.3449765"></rect>
                            <rect id="Rectangle-2" x="234" y="7.3818921" width="2" height="71.3224785"></rect>
                            <rect id="Rectangle-2" x="114" y="14.7822235" width="2" height="53.7384563"></rect>
                            <rect id="Rectangle-2" x="339" y="5.10446762" width="2" height="74.5490348"></rect>
                            <rect id="Rectangle-2" x="21" y="15.4394349" width="2" height="53.0927267"></rect>
                            <rect id="Rectangle-2" x="60" y="6.34600958" width="2" height="69.7973918"></rect>
                            <rect id="Rectangle-2" x="285" y="0.852669302" width="2" height="79.2999805"></rect>
                            <rect id="Rectangle-2" x="357" y="8.46067573" width="2" height="69.7973918"></rect>
                            <rect id="Rectangle-2" x="168" y="6.34600958" width="2" height="69.7973918"></rect>
                            <rect id="Rectangle-2" x="429" y="6.34600958" width="2" height="69.7973918"></rect>
                            <rect id="Rectangle-2" x="225" y="6.34600958" width="2" height="69.7973918"></rect>
                            <rect id="Rectangle-2" x="174" y="6.34600958" width="2" height="69.7973918"></rect>
                            <rect id="Rectangle-2" x="435" y="6.34600958" width="2" height="69.7973918"></rect>
                            <rect id="Rectangle-2" x="231" y="6.34600958" width="2" height="69.7973918"></rect>
                            <rect id="Rectangle-2" x="138" y="7.40334265" width="2" height="69.7973918"></rect>
                            <rect id="Rectangle-2" x="399" y="7.40334265" width="2" height="69.7973918"></rect>
                            <rect id="Rectangle-2" x="195" y="19.2531372" width="2" height="47.5799883"></rect>
                            <rect id="Rectangle-2" x="99" y="6.34600958" width="2" height="69.7973918"></rect>
                            <rect id="Rectangle-2" x="324" y="6.34600958" width="2" height="69.7973918"></rect>
                            <rect id="Rectangle-2" x="48" y="6.34600958" width="2" height="69.7973918"></rect>
                            <rect id="Rectangle-2" x="273" y="6.34600958" width="2" height="69.7973918"></rect>
                            <rect id="Rectangle-2" x="345" y="8.46067573" width="2" height="69.7973918"></rect>
                            <rect id="Rectangle-2" x="126" y="7.40334265" width="2" height="69.7973918"></rect>
                            <rect id="Rectangle-2" x="387" y="7.40334265" width="2" height="69.7973918"></rect>
                            <rect id="Rectangle-2" x="183" y="7.40334265" width="2" height="69.7973918"></rect>
                            <rect id="Rectangle-2" x="87" y="6.34600958" width="2" height="69.7973918"></rect>
                            <rect id="Rectangle-2" x="312" y="6.34600958" width="2" height="69.7973918"></rect>
                            <rect id="Rectangle-2" x="36" y="10.31331" width="2" height="63.3449765"></rect>
                            <rect id="Rectangle-2" x="261" y="10.31331" width="2" height="63.3449765"></rect>
                            <rect id="Rectangle-2" x="456" y="22.31331" width="2" height="38.3449765"></rect>
                            <rect id="Rectangle-2" x="75" y="10.31331" width="2" height="63.3449765"></rect>
                            <rect id="Rectangle-2" x="300" y="10.31331" width="2" height="63.3449765"></rect>
                            <rect id="Rectangle-2" x="372" y="12.4279762" width="2" height="63.3449765"></rect>
                            <rect id="Rectangle-2" x="153" y="11.3706431" width="2" height="63.3449765"></rect>
                            <rect id="Rectangle-2" x="414" y="11.3706431" width="2" height="63.3449765"></rect>
                            <rect id="Rectangle-2" x="210" y="11.3706431" width="2" height="63.3449765"></rect>
                            <rect id="Rectangle-2" x="237" y="9.49655825" width="2" height="67.0931462"></rect>
                            <rect id="Rectangle-2" x="117" y="14.7822235" width="2" height="53.7384563"></rect>
                            <rect id="Rectangle-2" x="378" y="14.7822235" width="2" height="53.7384563"></rect>
                            <rect id="Rectangle-2" x="342" y="5.10446762" width="2" height="74.5490348"></rect>
                            <rect id="Rectangle-2" x="24" y="15.4394349" width="2" height="53.0927267"></rect>
                            <rect id="Rectangle-2" x="63" y="8.59699796" width="2" height="65.1493787"></rect>
                            <rect id="Rectangle-2" x="288" y="3.35173685" width="2" height="75.6399009"></rect>
                            <rect id="Rectangle-2" x="360" y="10.7116641" width="2" height="65.1493787"></rect>
                            <rect id="Rectangle-2" x="141" y="9.65433103" width="2" height="65.1493787"></rect>
                            <rect id="Rectangle-2" x="402" y="9.65433103" width="2" height="65.1493787"></rect>
                            <rect id="Rectangle-2" x="198" y="13.1477072" width="2" height="59.6912971"></rect>
                            <rect id="Rectangle-2" x="102" y="8.59699796" width="2" height="65.1493787"></rect>
                            <rect id="Rectangle-2" x="327" y="8.59699796" width="2" height="65.1493787"></rect>
                            <rect id="Rectangle-2" x="51" y="8.67001616" width="2" height="65.1493787"></rect>
                            <rect id="Rectangle-2" x="276" y="5.02664466" width="2" height="71.3224785"></rect>
                            <rect id="Rectangle-2" x="348" y="10.7846823" width="2" height="65.1493787"></rect>
                            <rect id="Rectangle-2" x="129" y="9.72734923" width="2" height="65.1493787"></rect>
                            <rect id="Rectangle-2" x="390" y="9.72734923" width="2" height="65.1493787"></rect>
                            <rect id="Rectangle-2" x="186" y="9.72734923" width="2" height="65.1493787"></rect>
                            <rect id="Rectangle-2" x="90" y="8.67001616" width="2" height="65.1493787"></rect>
                            <rect id="Rectangle-2" x="315" y="8.67001616" width="2" height="65.1493787"></rect>
                            <rect id="Rectangle-2" x="39" y="7.46450226" width="2" height="69.7973918"></rect>
                            <rect id="Rectangle-2" x="264" y="7.46450226" width="2" height="69.7973918"></rect>
                            <rect id="Rectangle-2" x="78" y="7.46450226" width="2" height="69.7973918"></rect>
                            <rect id="Rectangle-2" x="303" y="7.46450226" width="2" height="69.7973918"></rect>
                            <rect id="Rectangle-2" x="375" y="9.5791684" width="2" height="69.7973918"></rect>
                            <rect id="Rectangle-2" x="156" y="8.52183533" width="2" height="69.7973918"></rect>
                            <rect id="Rectangle-2" x="417" y="8.52183533" width="2" height="69.7973918"></rect>
                            <rect id="Rectangle-2" x="213" y="8.52183533" width="2" height="69.7973918"></rect>
                            <rect id="Rectangle-2" x="240" y="10.715487" width="2" height="65.4100884"></rect>
                            <rect id="Rectangle-2" x="120" y="12.3654489" width="2" height="59.2123369"></rect>
                            <rect id="Rectangle-2" x="381" y="12.3654489" width="2" height="59.2123369"></rect>
                            <rect id="Rectangle-2" x="177" y="12.3654489" width="2" height="59.2123369"></rect>
                            <rect id="Rectangle-2" x="27" y="15.4394349" width="2" height="53.0927267"></rect>
                            <rect id="Rectangle-2" x="252" y="15.4394349" width="2" height="53.0927267"></rect>
                            <rect id="Rectangle-2" x="447" y="15.4394349" width="2" height="53.0927267"></rect>
                            <rect id="Rectangle-2" x="66" y="8.59699796" width="2" height="65.1493787"></rect>
                            <rect id="Rectangle-2" x="291" y="5.466403" width="2" height="71.4105686"></rect>
                            <rect id="Rectangle-2" x="363" y="10.7116641" width="2" height="65.1493787"></rect>
                            <rect id="Rectangle-2" x="144" y="9.65433103" width="2" height="65.1493787"></rect>
                            <rect id="Rectangle-2" x="405" y="9.65433103" width="2" height="65.1493787"></rect>
                            <rect id="Rectangle-2" x="201" y="9.65433103" width="2" height="65.1493787"></rect>
                            <rect id="Rectangle-2" x="108" y="13.326197" width="2" height="55.2692136"></rect>
                            <rect id="Rectangle-2" x="333" y="3.08458514" width="2" height="76.6725882"></rect>
                            <rect id="Rectangle-2" x="105" y="8.59699796" width="2" height="65.1493787"></rect>
                            <rect id="Rectangle-2" x="330" y="8.59699796" width="2" height="65.1493787"></rect>
                            <rect id="Rectangle-2" x="54" y="8.67001616" width="2" height="65.1493787"></rect>
                            <rect id="Rectangle-2" x="279" y="3.15255981" width="2" height="75.0706482"></rect>
                            <rect id="Rectangle-2" x="351" y="10.7846823" width="2" height="65.1493787"></rect>
                            <rect id="Rectangle-2" x="132" y="9.72734923" width="2" height="65.1493787"></rect>
                            <rect id="Rectangle-2" x="459" y="29.1210374" width="2" height="25.526474"></rect>
                            <rect id="Rectangle-2" x="462" y="30.643852" width="2" height="22.4808447"></rect>
                            <rect id="Rectangle-2" x="465" y="32.821926" width="2" height="18.1246968"></rect>
                            <rect id="Rectangle-2" x="468" y="35.7998519" width="2" height="12.168845"></rect>
                            <rect id="Rectangle-2" x="471" y="37.7610371" width="2" height="8.24647466"></rect>
                            <rect id="Rectangle-2" x="474" y="39.7515318" width="2" height="4.26548522"></rect>
                            <rect id="Rectangle-2" x="483" y="39.7515318" width="2" height="4.26548522"></rect>
                            <rect id="Rectangle-2" x="492" y="39.7515318" width="2" height="4.26548522"></rect>
                            <rect id="Rectangle-2" x="477" y="39.7515318" width="2" height="4.26548522"></rect>
                            <rect id="Rectangle-2" x="486" y="39.7515318" width="2" height="4.26548522"></rect>
                            <rect id="Rectangle-2" x="495" y="39.7515318" width="2" height="4.26548522"></rect>
                            <rect id="Rectangle-2" x="480" y="39.7515318" width="2" height="4.26548522"></rect>
                            <rect id="Rectangle-2" x="489" y="39.7515318" width="2" height="4.26548522"></rect>
                            <rect id="Rectangle-2" x="393" y="9.72734923" width="2" height="65.1493787"></rect>
                            <rect id="Rectangle-2" x="189" y="20.8373827" width="2" height="44.4114972"></rect>
                            <rect id="Rectangle-2" x="246" y="20.8373827" width="2" height="44.4114972"></rect>
                            <rect id="Rectangle-2" x="441" y="20.8373827" width="2" height="44.4114972"></rect>
                            <rect id="Rectangle-2" x="93" y="8.67001616" width="2" height="65.1493787"></rect>
                            <rect id="Rectangle-2" x="318" y="8.67001616" width="2" height="65.1493787"></rect>
                            <rect id="Rectangle-2" x="42" y="11.8948589" width="2" height="60.9366785"></rect>
                            <rect id="Rectangle-2" x="267" y="11.8948589" width="2" height="60.9366785"></rect>
                            <rect id="Rectangle-2" x="81" y="11.8948589" width="2" height="60.9366785"></rect>
                            <rect id="Rectangle-2" x="306" y="11.8948589" width="2" height="60.9366785"></rect>
                            <rect id="Rectangle-2" x="159" y="12.952192" width="2" height="60.9366785"></rect>
                            <rect id="Rectangle-2" x="420" y="12.952192" width="2" height="60.9366785"></rect>
                            <rect id="Rectangle-2" x="216" y="12.952192" width="2" height="60.9366785"></rect>
                            <rect id="Rectangle-2" x="243" y="12.952192" width="2" height="60.9366785"></rect>
                            <rect id="Rectangle-2" x="438" y="12.952192" width="2" height="60.9366785"></rect>
                            <rect id="Rectangle-2" x="30" y="6.07080614" width="2" height="71.8299843"></rect>
                            <rect id="Rectangle-2" x="255" y="6.07080614" width="2" height="71.8299843"></rect>
                            <rect id="Rectangle-2" x="450" y="13.0708061" width="2" height="57.8299843"></rect>
                            <rect id="Rectangle-2" x="69" y="6.07080614" width="2" height="71.8299843"></rect>
                            <rect id="Rectangle-2" x="294" y="7.37530631" width="2" height="69.2209839"></rect>
                            <rect id="Rectangle-2" x="366" y="8.18547228" width="2" height="71.8299843"></rect>
                            <rect id="Rectangle-2" x="147" y="7.12813921" width="2" height="71.8299843"></rect>
                            <rect id="Rectangle-2" x="408" y="7.12813921" width="2" height="71.8299843"></rect>
                            <rect id="Rectangle-2" x="204" y="7.12813921" width="2" height="71.8299843"></rect>
                            <rect id="Rectangle-2" x="111" y="11.1831124" width="2" height="60.9366785"></rect>
                            <rect id="Rectangle-2" x="336" y="0.111576514" width="2" height="83.534817"></rect>
                            <rect id="Rectangle-2" x="3" y="30.883801" width="2" height="23.2613276"></rect>
                        </g>
                        <rect id="wave-group-overlay" fill="#F5F5F5" opacity="0.46484375" x="0" y="42" width="497" height="42"></rect>
                    </g>
                </g>
            </g>
        </g>
    </g>
</svg>