<?xml version="1.0" encoding="UTF-8"?>
<svg width="84px" height="84px" viewBox="0 0 84 84" version="1.1" xmlns="http://www.w3.org/2000/svg" xmlns:xlink="http://www.w3.org/1999/xlink">
    <!-- Generator: sketchtool 52.6 (67491) - http://www.bohemiancoding.com/sketch -->
    <title>715EB4D8-156D-452A-9565-205509BCECB5</title>
    <desc>Created with sketchtool.</desc>
    <defs>
        <rect id="path-1" x="0" y="0" width="44" height="44" rx="3"></rect>
        <filter x="-79.5%" y="-56.8%" width="259.1%" height="259.1%" filterUnits="objectBoundingBox" id="filter-2">
            <feOffset dx="0" dy="10" in="SourceAlpha" result="shadowOffsetOuter1"></feOffset>
            <feGaussianBlur stdDeviation="10" in="shadowOffsetOuter1" result="shadowBlurOuter1"></feGaussianBlur>
            <feColorMatrix values="0 0 0 0 0.666666667   0 0 0 0 0.666666667   0 0 0 0 0.666666667  0 0 0 0.3 0" type="matrix" in="shadowBlurOuter1"></feColorMatrix>
        </filter>
    </defs>
    <g id="Page-1" stroke="none" stroke-width="1" fill="none" fill-rule="evenodd">
        <g id="Learn/Course-Details-Stages" transform="translate(-126.000000, -121.000000)">
            <g id="Group-29" transform="translate(146.000000, 122.000000)">
                <g id="Group-25" transform="translate(0.000000, 9.000000)">
                    <g id="Rectangle-2-Copy-5">
                        <use fill="black" fill-opacity="1" filter="url(#filter-2)" xlink:href="#path-1"></use>
                        <use fill="#FFAE74" fill-rule="evenodd" xlink:href="#path-1"></use>
                    </g>
                    <path d="M16.045863,25.1342633 C15.1664408,26.012729 15.1320062,27.7723386 15.1339192,28.1138154 C15.1364062,28.5327701 15.475396,28.8868729 15.894542,28.8868729 L15.9194114,28.8868729 C16.3133053,28.8868729 18.0040457,28.8224036 18.863955,27.9638334 C19.406683,27.421488 19.5206999,26.8682383 19.5206999,26.5047616 C19.5206999,25.9953204 19.30204,25.49334 18.9047026,25.0963852 C17.9363243,24.1291547 16.7439295,24.4367707 16.045863,25.1342633 M26.8183547,17.1886635 C27.049832,17.4201408 27.1818314,17.7415306 27.1818314,18.0686596 C27.1818314,18.3957886 27.049832,18.7152655 26.8183547,18.9467427 C26.5868775,19.17822 26.2654876,19.3121324 25.9383586,19.3121324 C25.6112296,19.3121324 25.2917528,19.17822 25.0602755,18.9467427 C24.8287983,18.7152655 24.6948858,18.3957886 24.6948858,18.0686596 C24.6948858,17.7415306 24.8287983,17.4201408 25.0602755,17.1886635 C25.2898397,16.9571863 25.6112296,16.8251869 25.9383586,16.8251869 C26.2654876,16.8251869 26.5868775,16.9571863 26.8183547,17.1886635 M30.7517461,13.9380344 C30.720181,13.5644186 30.4223215,13.2686634 30.0483231,13.2397766 C25.2171444,12.8638652 21.7373336,15.2019766 19.5874648,18.1551288 C18.3992788,17.7658262 17.123667,17.9047125 15.9603504,18.5601183 C14.8398858,19.1912286 13.8854726,20.2546848 13.27311,21.5545921 C13.1326933,21.8522604 13.1985017,22.2063632 13.4364832,22.433823 C13.6742735,22.6612829 14.0310545,22.7112131 14.3220272,22.5575964 C15.5471348,21.9115645 16.9266244,22.0332335 17.7549686,22.8604298 L21.128032,26.2298585 C21.1341537,26.2363628 21.1383624,26.2438236 21.1446754,26.2503279 C21.9722543,27.0769504 22.0941147,28.4541443 21.4477001,29.6771476 C21.2940834,29.9681203 21.3434397,30.3249013 21.5707083,30.5628829 C21.7185859,30.7178387 21.9198372,30.7999079 22.1245319,30.7999079 C22.2345314,30.7999079 22.3456788,30.7761863 22.4499392,30.7272126 C23.7509943,30.115424 24.8155983,29.1619673 25.4474738,28.0426505 C26.1074709,26.8734035 26.2448268,25.5905222 25.8463416,24.3969796 C26.713903,23.7742867 27.4905952,23.0723941 28.1429402,22.3110062 C30.1458879,19.9732773 31.0235884,17.1563332 30.7517461,13.9380344" id="rocket" fill="#FFFFFF"></path>
                </g>
            </g>
        </g>
    </g>
</svg>