<?xml version="1.0" encoding="UTF-8"?>
<svg width="44px" height="44px" viewBox="0 0 44 44" version="1.1" xmlns="http://www.w3.org/2000/svg" xmlns:xlink="http://www.w3.org/1999/xlink">
    <!-- Generator: sketchtool 52.6 (67491) - http://www.bohemiancoding.com/sketch -->
    <title>D6D5CAAE-6410-4225-A11E-4967CF96356D</title>
    <desc>Created with sketchtool.</desc>
    <g id="Page-1" stroke="none" stroke-width="1" fill="none" fill-rule="evenodd">
        <g id="Learn/Recommended/Normal-View/Completed-courses-open" transform="translate(-1023.000000, -398.000000)" fill="#5ACEF7" stroke="#5ACEF7" stroke-width="0.5">
            <g id="Card/Mycourses/Aspirational/Completed" transform="translate(1004.000000, 372.000000)">
                <g id="Group-5" transform="translate(20.000000, 27.000000)">
                    <g id="Group-3">
                        <path d="M40.7716465,20.9623007 L41.8707119,18.0445437 C41.9623007,17.7828615 41.9230484,17.495011 41.7529549,17.2725811 L39.8034222,14.8389362 L39.9473474,11.7249175 C39.9604316,11.4501512 39.8295904,11.1884689 39.5940764,11.0314596 L36.9903381,9.3174409 L36.166039,6.30809511 C36.0875344,6.04641286 35.8781886,5.83706707 35.6165063,5.7585624 L32.6071605,4.93426333 L30.8931418,2.33052501 C30.7361325,2.09501099 30.4744502,1.96416987 30.1996839,1.97725398 L27.0856652,2.12117922 L24.6520203,0.171646507 C24.4426745,0.00155304926 24.14174,-0.0507833993 23.8800577,0.0538894979 L20.9623007,1.15295492 L18.0445437,0.0538894979 C17.7828615,-0.0376992872 17.495011,0.00155304926 17.2725811,0.171646507 L14.8389362,2.12117922 L11.7249175,1.97725398 C11.4501512,1.96416987 11.1884689,2.09501099 11.0314596,2.33052501 L9.3174409,4.93426333 L6.30809511,5.7585624 C6.04641286,5.83706707 5.83706707,6.04641286 5.7585624,6.30809511 L4.93426333,9.3174409 L2.33052501,11.0314596 C2.09501099,11.1884689 1.96416987,11.4501512 1.97725398,11.7249175 L2.12117922,14.8389362 L0.171646507,17.2725811 C0.00155304926,17.4819269 -0.0507833993,17.7828615 0.0538894979,18.0445437 L1.15295492,20.9623007 L0.0538894979,23.8800577 C-0.0376992872,24.14174 0.00155304926,24.4295904 0.171646507,24.6520203 L2.12117922,27.0856652 L1.97725398,30.1996839 C1.96416987,30.4744502 2.09501099,30.7361325 2.33052501,30.8931418 L4.93426333,32.6071605 L5.7585624,35.6165063 C5.83706707,35.8781886 6.04641286,36.0875344 6.30809511,36.166039 L9.3174409,36.9903381 L11.0314596,39.5940764 C11.1884689,39.8295904 11.4501512,39.9604316 11.7249175,39.9473474 L14.8389362,39.8034222 L17.2725811,41.7529549 C17.4819269,41.9230484 17.7828615,41.9753848 18.0445437,41.8707119 L20.9623007,40.7716465 L23.8800577,41.8707119 C23.9716465,41.9099643 24.0632353,41.9230484 24.1548241,41.9230484 C24.3380016,41.9230484 24.5080951,41.8576278 24.6389362,41.7529549 L27.0725811,39.8034222 L30.1865998,39.9473474 C30.4613661,39.9604316 30.7230484,39.8295904 30.8800577,39.5940764 L32.5940764,36.9903381 L35.6034222,36.166039 C35.8651045,36.0875344 36.0744502,35.8781886 36.1529549,35.6165063 L36.977254,32.6071605 L39.5809923,30.8931418 C39.8165063,30.7361325 39.9473474,30.4744502 39.9342633,30.1996839 L39.7903381,27.0856652 L41.7398708,24.6520203 C41.9099643,24.4426745 41.9623007,24.14174 41.8576278,23.8800577 L40.7716465,20.9623007 Z M38.2202446,26.8501512 L38.3641699,29.8202446 L35.8781886,31.4557587 C35.7211792,31.5604316 35.6034222,31.7174409 35.5510858,31.9006185 L34.766039,34.766039 L31.9006185,35.5510858 C31.7174409,35.6034222 31.5604316,35.7211792 31.4557587,35.8781886 L29.8202446,38.3641699 L26.8501512,38.2202446 C26.6538895,38.2071605 26.4707119,38.2725811 26.3267867,38.3903381 L24.023983,40.2351979 L21.2501512,39.1884689 C21.1585624,39.1492166 21.0669736,39.1361325 20.9753848,39.1361325 C20.883796,39.1361325 20.7922073,39.1492166 20.7006185,39.1884689 L17.9267867,40.2351979 L15.6108988,38.377254 C15.4669736,38.259497 15.2707119,38.1940764 15.0875344,38.2071605 L12.1174409,38.3510858 L10.4819269,35.8651045 C10.377254,35.7080951 10.2202446,35.5903381 10.0370671,35.5380016 L7.17164651,34.7529549 L6.38659978,31.8875344 C6.33426333,31.7043568 6.21650632,31.5473474 6.05949697,31.4426745 L3.57351567,29.8071605 L3.7174409,26.8370671 C3.73052501,26.6408054 3.66510445,26.4576278 3.54734744,26.3137026 L1.68940352,23.9978147 L2.73613249,21.223983 C2.80155305,21.0408054 2.80155305,20.8445437 2.73613249,20.6744502 L1.68940352,17.9006185 L3.54734744,15.5847306 C3.66510445,15.4408054 3.73052501,15.2445437 3.7174409,15.0613661 L3.57351567,12.0912727 L6.05949697,10.4557587 C6.21650632,10.3510858 6.33426333,10.1940764 6.38659978,10.0108988 L7.17164651,7.14547828 L10.0370671,6.36043155 C10.2202446,6.30809511 10.377254,6.1903381 10.4819269,6.03332875 L12.1174409,3.54734744 L15.0875344,3.69127268 C15.283796,3.70435679 15.4669736,3.63893623 15.6108988,3.52117922 L17.9137026,1.6763194 L20.6875344,2.72304838 C20.8707119,2.78846894 21.0669736,2.78846894 21.2370671,2.72304838 L24.0108988,1.6763194 L26.3267867,3.53426333 C26.4707119,3.65202034 26.6669736,3.7174409 26.8501512,3.70435679 L29.8202446,3.56043155 L31.4557587,6.04641286 C31.5604316,6.20342221 31.7174409,6.32117922 31.9006185,6.37351567 L34.766039,7.1585624 L35.5510858,10.023983 C35.6034222,10.2071605 35.7211792,10.3641699 35.8781886,10.4688428 L38.3641699,12.1043568 L38.2202446,15.0744502 C38.2071605,15.2707119 38.2725811,15.4538895 38.3903381,15.5978147 L40.248282,17.9006185 L39.201553,20.6744502 C39.1361325,20.8576278 39.1361325,21.0538895 39.201553,21.223983 L40.248282,23.9978147 L38.3903381,26.3137026 C38.2725811,26.4707119 38.2071605,26.6669736 38.2202446,26.8501512 Z" id="Shape" fill-rule="nonzero"></path>
                        <path d="M21,35 C13.2826446,35 7,28.7173554 7,21 C7,13.2826446 13.2826446,7 21,7 C28.7173554,7 35,13.2826446 35,21 C35,28.7173554 28.7173554,35 21,35 Z M21,8.4 C14.046281,8.4 8.38842975,14.0578512 8.38842975,21.0115702 C8.38842975,27.9652893 14.046281,33.6231405 21,33.6231405 C27.953719,33.6231405 33.6115702,27.9652893 33.6115702,21.0115702 C33.6115702,14.0578512 27.953719,8.4 21,8.4 Z" id="Shape" fill-rule="nonzero"></path>
                        <path d="M17.3385997,27 C17.1411963,27 16.9554049,26.9310515 16.8044494,26.781663 L12.2177243,22.2425527 C11.9274252,21.9552672 11.9274252,21.4726277 12.2177243,21.1853422 C12.5080234,20.8980567 12.9957258,20.8980567 13.2860248,21.1853422 L17.3385997,25.1958473 L27.7196941,15.2098046 C28.0216051,14.9225191 28.4976956,14.9340105 28.7879946,15.221296 C29.0782937,15.5200729 29.0666817,15.991221 28.7763827,16.2785065 L17.861138,26.7701716 C17.7101825,26.9310515 17.5243911,27 17.3385997,27 Z" id="Path"></path>
                    </g>
                </g>
            </g>
        </g>
    </g>
</svg>