<?xml version="1.0" encoding="UTF-8"?>
<svg width="13px" height="17px" viewBox="0 0 13 17" version="1.1" xmlns="http://www.w3.org/2000/svg" xmlns:xlink="http://www.w3.org/1999/xlink">
    <!-- Generator: sketchtool 53 (72520) - https://sketchapp.com -->
    <title>A8B5DCB0-61A2-4AE3-A9B3-DDF0C83ED5D2</title>
    <desc>Created with sketchtool.</desc>
    <g id="Page-1" stroke="none" stroke-width="1" fill="none" fill-rule="evenodd">
        <g id="Dashboard" transform="translate(-909.000000, -701.000000)" fill="#507BFC">
            <g id="Group-17-Copy" transform="translate(889.000000, 675.000000)">
                <g id="Group-10" transform="translate(20.000000, 24.000000)">
                    <g id="Group">
                        <g id="icon/myactivity/like" transform="translate(0.000000, 2.000000)">
                            <g id="Group-5">
                                <g id="Group-42" transform="translate(6.480000, 8.100000) scale(1, -1) rotate(180.000000) translate(-6.480000, -8.100000) ">
                                    <path d="M10.912,14.1153348 L11.936,14.1153348 C12.4992,14.1153348 12.96,13.6637779 12.96,13.111875 C12.96,12.5599721 12.4992,12.1084152 11.936,12.1084152 C12.4992,12.1084152 12.96,11.6568583 12.96,11.1049554 C12.96,10.5530525 12.4992,10.1014955 11.936,10.1014955 C12.4992,10.1014955 12.96,9.64993862 12.96,9.09803571 C12.96,8.54613281 12.4992,8.09457589 11.936,8.09457589 L7.73763413,8.09457589 C8.36224,6.25821097 8.352,5.67289286 8.352,4.54901786 C8.352,3.71410584 7.6534272,3.04382813 6.816,3.04382813 L6.5088,3.04382813 C6.31424,3.04382813 6.06848,3.19438055 6.01724587,3.42514286 C5.51067307,5.35783992 3.43867733,8.3450702 1.44,8.79428571 C-0.558677333,9.24350123 -0.16,14.4372999 1.44,15.2742857 C3.04,16.1112716 5.55648,16.122221 6.10944,16.122221 L10.912,16.122221 C11.4775552,16.1222545 11.936,15.6729386 11.936,15.1187946 C11.936,14.5645838 11.4775552,14.1153348 10.912,14.1153348 Z" id="Fill-1"></path>
                                    <path d="M4.64351573,2.92184086 C4.84350293,2.72586516 4.84350293,2.40833702 4.64351573,2.21236132 L3.9195136,1.50288177 C3.7195264,1.30690607 3.39549867,1.30690607 3.19551147,1.50288177 C2.99552427,1.69885748 2.99552427,2.01638561 3.19551147,2.21236132 L3.9195136,2.92184086 C4.1195008,3.11781656 4.4434944,3.11781656 4.64351573,2.92184086" id="Fill-3"></path>
                                    <path d="M9.7124864,2.92184086 L10.4364885,2.21236132 C10.6364757,2.01638561 10.6364757,1.69885748 10.4364885,1.50288177 C10.2365013,1.30690607 9.9124736,1.30690607 9.7124864,1.50288177 L8.98848427,2.21236132 C8.78849707,2.40833702 8.78849707,2.72586516 8.98848427,2.92184086 C9.18847147,3.11781656 9.5124992,3.11781656 9.7124864,2.92184086" id="Fill-4"></path>
                                    <path d="M7.328,1.53863839 L7.328,0.501729911 C7.328,0.220727712 7.10275413,0 6.816,0 C6.52924587,0 6.304,0.220727712 6.304,0.501729911 L6.304,1.53863839 C6.304,1.81964059 6.52924587,2.0403683 6.816,2.0403683 C7.10275413,2.0403683 7.328,1.81964059 7.328,1.53863839" id="Fill-5"></path>
                                </g>
                            </g>
                        </g>
                    </g>
                </g>
            </g>
        </g>
    </g>
</svg>