<?xml version="1.0" encoding="UTF-8"?>
<svg width="14px" height="13px" viewBox="0 0 14 13" version="1.1" xmlns="http://www.w3.org/2000/svg" xmlns:xlink="http://www.w3.org/1999/xlink">
    <!-- Generator: sketchtool 52.6 (67491) - http://www.bohemiancoding.com/sketch -->
    <title>58529226-2218-4F1D-B844-314D718B6528</title>
    <desc>Created with sketchtool.</desc>
    <g id="Page-1" stroke="none" stroke-width="1" fill="none" fill-rule="evenodd">
        <g id="Learn/View-All/Calender-View" transform="translate(-166.000000, -796.000000)" fill="#464646">
            <g id="Card/Mycourses/Recommended/Newcourse" transform="translate(146.000000, 679.000000)">
                <g id="Group-2" transform="translate(20.000000, 116.000000)">
                    <g id="Offline-2-27-Copy" transform="translate(0.000000, 1.518072)">
                        <path d="M13.1228916,8.31987952 L0.877108434,8.31987952 C0.413253012,8.31987952 0.0337349398,7.94036145 0.0337349398,7.47650602 L0.0337349398,0.856024096 C0.0337349398,0.392168675 0.413253012,0.0126506024 0.877108434,0.0126506024 L13.1271084,0.0126506024 C13.5909639,0.0126506024 13.9704819,0.392168675 13.9704819,0.856024096 L13.9704819,7.47650602 C13.9662651,7.94036145 13.5909639,8.31987952 13.1228916,8.31987952 Z M0.877108434,0.687349398 C0.784337349,0.687349398 0.708433735,0.763253012 0.708433735,0.856024096 L0.708433735,7.47650602 C0.708433735,7.56927711 0.784337349,7.64518072 0.877108434,7.64518072 L13.1271084,7.64518072 C13.2198795,7.64518072 13.2957831,7.56927711 13.2957831,7.47650602 L13.2957831,0.856024096 C13.2957831,0.763253012 13.2198795,0.687349398 13.1271084,0.687349398 L0.877108434,0.687349398 Z" id="Shape" fill-rule="nonzero"></path>
                        <path d="M2.20120482,8.31566265 L1.96927711,12.0855422 C1.95662651,12.2879518 2.11686747,12.4608434 2.32349398,12.4608434 L2.88433735,12.4608434 C3.06987952,12.4608434 3.22590361,12.313253 3.23855422,12.1277108 L3.46626506,8.35783133 C3.47891566,8.15542169 3.3186747,7.98253012 3.11204819,7.98253012 L2.55542169,7.98253012 C2.36566265,7.98253012 2.21385542,8.12590361 2.20120482,8.31566265 Z" id="Path"></path>
                        <path d="M11.7987952,8.31566265 L12.0307229,12.0855422 C12.0433735,12.2879518 11.8831325,12.4608434 11.676506,12.4608434 L11.1156627,12.4608434 C10.9301205,12.4608434 10.7740964,12.313253 10.7614458,12.1277108 L10.5337349,8.35783133 C10.5210843,8.15542169 10.6813253,7.98253012 10.8879518,7.98253012 L11.4445783,7.98253012 C11.6343373,7.98253012 11.7861446,8.12590361 11.7987952,8.31566265 Z" id="Path"></path>
                    </g>
                </g>
            </g>
        </g>
    </g>
</svg>