<?xml version="1.0" encoding="UTF-8"?>
<svg width="84px" height="84px" viewBox="0 0 84 84" version="1.1" xmlns="http://www.w3.org/2000/svg" xmlns:xlink="http://www.w3.org/1999/xlink">
    <!-- Generator: sketchtool 52.6 (67491) - http://www.bohemiancoding.com/sketch -->
    <title>BB281E31-9DED-4C53-AB7B-681EF4E726F4</title>
    <desc>Created with sketchtool.</desc>
    <g id="Page-1" stroke="none" stroke-width="1" fill="none" fill-rule="evenodd">
        <g id="Favourites/Bookmarks/0-Folders" transform="translate(-600.000000, -589.000000)" fill="#FF9C55">
            <g id="Group-10-Copy" transform="translate(574.000000, 557.000000)">
                <g id="Group-2">
                    <g id="Orange-icon" transform="translate(26.000000, 32.000000)">
                        <g id="Group-7">
                            <g id="Group-5">
                                <path d="M47.5651376,25.5921479 C47.9504587,24.5854021 47.4880734,23.4624933 46.4862385,23.0752833 C43.5192661,21.8749325 40.3981651,21.2941176 37.2,21.2941176 C23.2899083,21.2941176 12,32.6393686 12,46.6176471 C12,60.5959255 23.2899083,71.9411765 37.2,71.9411765 C51.1100917,71.9411765 62.4,60.5959255 62.4,46.6176471 C62.4,43.4038046 61.8220183,40.2674042 60.6275229,37.2858877 C60.2422018,36.2791419 59.0862385,35.775769 58.1229358,36.2016999 C57.1211009,36.5889099 56.6201835,37.7505397 57.0440367,38.7185645 C58.0458716,41.235429 58.546789,43.8684566 58.546789,46.5789261 C58.546789,58.3888289 48.9908257,67.9916352 37.2385321,67.9916352 C25.4862385,67.9916352 15.9302752,58.3888289 15.9302752,46.5789261 C15.9302752,34.7690232 25.4862385,25.1662169 37.2385321,25.1662169 C39.9357798,25.1662169 42.5944954,25.6695899 45.0990826,26.6763357 C46.0623853,27.1022666 47.1798165,26.5988937 47.5651376,25.5921479 Z" id="Path"></path>
                                <path d="M70.5866109,34.9649889 C69.5359833,35.277812 68.9523013,36.3726926 69.2246862,37.3893675 C70.0807531,40.3611863 70.5087866,43.4894167 70.5087866,46.6176471 C70.5087866,65.0742063 55.5665272,80.0506092 37.2389121,80.0506092 C18.8723849,80.0506092 3.96903766,65.0351034 3.96903766,46.6176471 C3.96903766,28.2001907 18.9112971,13.184685 37.2389121,13.184685 C40.3518828,13.184685 43.4648536,13.6148166 46.4221757,14.47508 C47.4728033,14.787903 48.5623431,14.162257 48.834728,13.1064792 C49.1460251,12.0507015 48.523431,10.9558208 47.4728033,10.6821007 C44.165272,9.70452867 40.7020921,9.23529412 37.2,9.23529412 C16.6933054,9.23529412 0,26.0104295 0,46.6176471 C0,67.2248646 16.6933054,84 37.2,84 C57.7066946,84 74.4,67.2248646 74.4,46.6176471 C74.4,43.1374908 73.9330544,39.6573345 72.960251,36.2944868 C72.7267782,35.277812 71.6372385,34.6521659 70.5866109,34.9649889 Z" id="Path"></path>
                                <path d="M38.4,35.5050134 C38.7272727,35.5050134 39.0136364,35.5050134 39.3409091,35.546123 C40.4863636,35.6694519 41.4681818,34.8061497 41.5909091,33.6550802 C41.7136364,32.5040107 40.8545455,31.5173797 39.7090909,31.3940508 C39.3,31.3529412 38.85,31.3529412 38.4,31.3529412 C30.4636364,31.3529412 24,37.848262 24,45.8235294 C24,53.7987968 30.4636364,60.2941176 38.4,60.2941176 C46.3363636,60.2941176 52.8,53.7987968 52.8,45.8235294 C52.8,45.4124332 52.8,44.9602273 52.7590909,44.549131 C52.6772727,43.3980615 51.6545455,42.575869 50.5090909,42.6580882 C49.3636364,42.7403075 48.5454545,43.7680481 48.6272727,44.9191176 C48.6681818,45.206885 48.6681818,45.535762 48.6681818,45.8235294 C48.6681818,51.5377674 44.0454545,56.1420455 38.4,56.1420455 C32.7136364,56.1420455 28.0909091,51.4966578 28.0909091,45.8235294 C28.0909091,40.1092914 32.7136364,35.5050134 38.4,35.5050134 Z" id="Path"></path>
                                <path d="M83.6875401,13.487319 C83.0538186,11.9748069 81.6279454,11.0195361 80.0040341,11.0195361 L73.033098,11.0195361 L73.033098,4.01421698 C73.033098,2.38229604 72.0825158,0.949389852 70.5774273,0.312542657 C69.0723389,-0.324304539 67.3692124,0.0339220086 66.2205923,1.18820755 L54.5759604,12.8902748 C53.4273402,14.0445603 52.8332264,15.5172694 52.8332264,17.1491904 L52.8332264,28.4930311 L36.5941139,44.8122404 C35.801962,45.6082994 35.801962,46.8819938 36.5941139,47.6382499 C36.9901898,48.0362794 37.5050885,48.2352941 38.0199872,48.2352941 C38.5348859,48.2352941 39.0497845,48.0362794 39.4458605,47.6382499 L55.684973,31.3190405 L66.9731365,31.3190405 C68.5574402,31.3190405 70.0625287,30.6821933 71.2111488,29.5677107 L82.8557807,17.8656435 C83.9647933,16.7113579 84.3212616,14.9998311 83.6875401,13.487319 Z M56.8335931,17.1491904 C56.8335931,16.631752 57.0316311,16.1143137 57.427707,15.7162842 L69.0723389,4.01421698 L69.0723389,12.1738217 L56.8732007,24.4331302 L56.8335931,17.1491904 Z M68.3990098,26.7417013 C68.0425415,27.0999278 67.5276428,27.3387455 66.9731365,27.3387455 L59.6853397,27.3387455 L71.8844779,15.079437 L80.0040341,15.079437 L68.3990098,26.7417013 Z" id="Shape" fill-rule="nonzero"></path>
                            </g>
                        </g>
                    </g>
                </g>
            </g>
        </g>
    </g>
</svg>