<?xml version="1.0" encoding="UTF-8"?>
<svg width="60px" height="64px" viewBox="0 0 60 64" version="1.1" xmlns="http://www.w3.org/2000/svg" xmlns:xlink="http://www.w3.org/1999/xlink">
    <!-- Generator: sketchtool 53.2 (72643) - https://sketchapp.com -->
    <title>364B1BF7-70E6-4C31-8912-28A16AAF1603</title>
    <desc>Created with sketchtool.</desc>
    <defs>
        <rect id="path-1" x="0" y="0" width="24" height="24" rx="3"></rect>
        <filter x="-145.8%" y="-104.2%" width="391.7%" height="391.7%" filterUnits="objectBoundingBox" id="filter-2">
            <feOffset dx="0" dy="10" in="SourceAlpha" result="shadowOffsetOuter1"></feOffset>
            <feGaussianBlur stdDeviation="10" in="shadowOffsetOuter1" result="shadowBlurOuter1"></feGaussianBlur>
            <feColorMatrix values="0 0 0 0 0.666666667   0 0 0 0 0.666666667   0 0 0 0 0.666666667  0 0 0 0.3 0" type="matrix" in="shadowBlurOuter1"></feColorMatrix>
        </filter>
    </defs>
    <g id="Page-1" stroke="none" stroke-width="1" fill="none" fill-rule="evenodd">
        <g id="1.0-Learn---Course---Modules" transform="translate(0.000000, -130.000000)">
            <g id="Group-29" transform="translate(16.000000, 140.000000)">
                <g id="Course-Logo">
                    <g id="Rectangle-2-Copy-5">
                        <use fill="black" fill-opacity="1" filter="url(#filter-2)" xlink:href="#path-1"></use>
                        <use fill="#FFAE74" fill-rule="evenodd" xlink:href="#path-1"></use>
                    </g>
                    <path d="M8.75228894,13.7095982 C8.27260409,14.1887613 8.25382157,15.1485483 8.25486504,15.3348084 C8.25622156,15.5633291 8.44112509,15.7564761 8.66975017,15.7564761 L8.68331533,15.7564761 C8.89816655,15.7564761 9.82038858,15.721311 10.28943,15.2530001 C10.5854635,14.9571753 10.6476545,14.6554027 10.6476545,14.4571427 C10.6476545,14.1792657 10.5283855,13.9054582 10.311656,13.6889374 C9.78344961,13.1613571 9.13305248,13.3291477 8.75228894,13.7095982 M14.6281935,9.37563464 C14.7544538,9.50189496 14.8264535,9.67719853 14.8264535,9.85563253 C14.8264535,10.0340665 14.7544538,10.2083266 14.6281935,10.3345869 C14.5019332,10.4608473 14.3266296,10.5338904 14.1481956,10.5338904 C13.9697616,10.5338904 13.7955015,10.4608473 13.6692412,10.3345869 C13.5429809,10.2083266 13.4699377,10.0340665 13.4699377,9.85563253 C13.4699377,9.67719853 13.5429809,9.50189496 13.6692412,9.37563464 C13.794458,9.24937433 13.9697616,9.17737465 14.1481956,9.17737465 C14.3266296,9.17737465 14.5019332,9.24937433 14.6281935,9.37563464 M16.7736797,7.60256419 C16.7564624,7.39877379 16.5939935,7.23745276 16.3899944,7.22169631 C13.754806,7.01665373 11.8567274,8.29198724 10.6840717,9.90279754 C10.0359702,9.69045065 9.340182,9.76620684 8.70564566,10.1237009 C8.09448314,10.4679429 7.57389413,11.0480099 7.23987821,11.7570502 C7.16328724,11.9194147 7.19918273,12.1125617 7.32899086,12.2366307 C7.45869463,12.3606998 7.65330247,12.3879344 7.81201482,12.3041435 C8.48025535,11.9517624 9.23270421,12.0181274 9.68452831,12.4693254 L11.5243811,14.3071955 C11.5277202,14.3107433 11.5300158,14.3148129 11.5334593,14.3183607 C11.984866,14.7692457 12.0513353,15.5204424 11.6987455,16.1875351 C11.6149546,16.3462474 11.6418762,16.5408553 11.7658409,16.6706634 C11.8465014,16.7551847 11.9562748,16.7999498 12.0679265,16.7999498 C12.1279262,16.7999498 12.1885521,16.7870107 12.2454214,16.7602978 C12.9550878,16.4265949 13.5357809,15.9065276 13.8804403,15.2959912 C14.2404387,14.6582201 14.3153601,13.9584666 14.0980045,13.3074434 C14.5712198,12.9677927 14.9948701,12.5849422 15.3506947,12.1696397 C16.4432116,10.8945149 16.9219573,9.35799994 16.7736797,7.60256419" id="rocket" fill="#FFFFFF"></path>
                </g>
            </g>
        </g>
    </g>
</svg>